<?xml version="1.0" encoding="UTF-8"?>
<svg xmlns="http://www.w3.org/2000/svg" xmlns:xlink="http://www.w3.org/1999/xlink" width="35px" height="35px" viewBox="0 0 35 35" version="1.1">
<g id="surface1">
<path style="fill:none;stroke-width:2;stroke-linecap:butt;stroke-linejoin:miter;stroke:rgb(0%,0%,0%);stroke-opacity:1;stroke-miterlimit:4;" d="M 17.555357 3 C 19.457143 3 21 4.542857 21 6.444643 L 21 17.555357 C 21 19.457143 19.457143 21 17.555357 21 L 6.444643 21 C 4.542857 21 3 19.457143 3 17.555357 L 3 6.444643 C 3 4.542857 4.542857 3 6.444643 3 Z M 17.555357 3 " transform="matrix(1.458333,0,0,1.458333,0,0)"/>
<path style=" stroke:none;fill-rule:evenodd;fill:rgb(0%,0%,0%);fill-opacity:1;" d="M 16.78125 10.230469 C 13.160156 10.230469 10.226562 13.164062 10.226562 16.78125 C 10.226562 20.398438 13.160156 23.332031 16.78125 23.332031 C 18.0625 23.332031 19.257812 22.964844 20.265625 22.328125 L 22.117188 24.179688 C 22.6875 24.75 23.609375 24.75 24.179688 24.179688 C 24.75 23.609375 24.75 22.6875 24.179688 22.117188 L 22.328125 20.265625 C 22.964844 19.257812 23.332031 18.0625 23.332031 16.78125 C 23.332031 13.164062 20.398438 10.230469 16.78125 10.230469 Z M 13.144531 16.78125 C 13.144531 14.773438 14.773438 13.144531 16.78125 13.144531 C 18.789062 13.144531 20.417969 14.773438 20.417969 16.78125 C 20.417969 18.789062 18.789062 20.417969 16.78125 20.417969 C 14.773438 20.417969 13.144531 18.789062 13.144531 16.78125 Z M 13.144531 16.78125 "/>
</g>
</svg>
